<svg width="73" height="70" viewBox="0 0 73 70" fill="none" xmlns="http://www.w3.org/2000/svg">
<mask id="mask0" mask-type="alpha" maskUnits="userSpaceOnUse" x="0" y="6" width="59" height="64">
<path d="M56.9807 38.2532C56.9807 54.8233 44.5366 68 29.4904 68C14.4442 68 2 54.8233 2 38.2532C2 21.683 14.4442 8.50635 29.4904 8.50635C44.5366 8.50635 56.9807 21.683 56.9807 38.2532Z" fill="#F8C04E" stroke="#503A32" stroke-width="4"/>
</mask>
<g mask="url(#mask0)">
<path d="M56.9807 38.2532C56.9807 54.8233 44.5366 68 29.4904 68C14.4442 68 2 54.8233 2 38.2532C2 21.683 14.4442 8.50635 29.4904 8.50635C44.5366 8.50635 56.9807 21.683 56.9807 38.2532Z" fill="#F8C04E" stroke="#503A32" stroke-width="4"/>
<ellipse cx="30.049" cy="57.4408" rx="8.60136" ry="6.04701" fill="#C4C4C4"/>
<rect x="46.0228" y="18.3678" width="1.78729" height="13.4895" fill="white"/>
<ellipse cx="43.1185" cy="33.6016" rx="5.13847" ry="5.23299" fill="#C4C4C4"/>
<rect x="11.6174" y="18.3678" width="1.78729" height="14.4198" fill="white"/>
<ellipse cx="15.4154" cy="33.6016" rx="5.13847" ry="5.23299" fill="#C4C4C4"/>
<path d="M12.2877 40.2221C12.2877 30.7213 19.9896 23.0194 29.4904 23.0194V23.0194C38.9912 23.0194 46.6931 30.7213 46.6931 40.2221V50.7172C46.6931 52.2469 45.4531 53.487 43.9234 53.487H15.0575C13.5278 53.487 12.2877 52.2469 12.2877 50.7172V40.2221Z" fill="white"/>
<path d="M15.8622 39.8944C15.8622 32.2444 22.0638 26.0429 29.7138 26.0429V26.0429C37.3638 26.0429 43.5653 32.2444 43.5653 39.8944V48.032C43.5653 49.2464 42.5808 50.2309 41.3664 50.2309H18.0612C16.8467 50.2309 15.8622 49.2464 15.8622 48.032V39.8944Z" fill="#343748"/>
<path d="M34.1819 42.4713C34.1819 44.5732 32.478 46.2771 30.3761 46.2771H29.4981C27.3962 46.2771 25.6923 44.5732 25.6923 42.4713V42.4713C25.6923 42.2611 25.8627 42.0907 26.0729 42.0907H33.8014C34.0116 42.0907 34.1819 42.2611 34.1819 42.4713V42.4713Z" fill="#4CEEDF"/>
<ellipse cx="35.8576" cy="38.7183" rx="2.12241" ry="2.20949" fill="#4CEEDF"/>
<ellipse cx="23.57" cy="38.7183" rx="2.12241" ry="2.20949" fill="#4CEEDF"/>
<ellipse cx="38.2035" cy="53.6033" rx="2.45753" ry="2.44206" fill="#C4C4C4"/>
<ellipse cx="22.1177" cy="53.6033" rx="2.45753" ry="2.44206" fill="#C4C4C4"/>
</g>
<rect x="32.5317" y="1.8141" width="39.5439" height="20.932" rx="10.466" fill="#343748"/>
<path d="M50.1787 17H47.7627V12.072H43.2347V17H40.8187V5.576H43.2347V10.056H47.7627V5.576H50.1787V17ZM54.061 4.84C54.413 4.84 54.717 4.92533 54.973 5.096C55.229 5.256 55.357 5.56 55.357 6.008C55.357 6.44533 55.229 6.74933 54.973 6.92C54.717 7.09067 54.413 7.176 54.061 7.176C53.6984 7.176 53.389 7.09067 53.133 6.92C52.8877 6.74933 52.765 6.44533 52.765 6.008C52.765 5.56 52.8877 5.256 53.133 5.096C53.389 4.92533 53.6984 4.84 54.061 4.84ZM55.245 8.264V17H52.861V8.264H55.245ZM63.3298 13.208H61.4258L61.0258 5.576H63.7298L63.3298 13.208ZM60.9938 15.88C60.9938 15.3893 61.1271 15.048 61.3938 14.856C61.6605 14.6533 61.9858 14.552 62.3698 14.552C62.7431 14.552 63.0631 14.6533 63.3298 14.856C63.5965 15.048 63.7298 15.3893 63.7298 15.88C63.7298 16.3493 63.5965 16.6907 63.3298 16.904C63.0631 17.1067 62.7431 17.208 62.3698 17.208C61.9858 17.208 61.6605 17.1067 61.3938 16.904C61.1271 16.6907 60.9938 16.3493 60.9938 15.88Z" fill="white"/>
</svg>
